<svg xmlns="http://www.w3.org/2000/svg" height="1024" preserveAspectRatio="none" style="display: block;" version="1.1" viewBox="0 0 2048 2048" width="1024">
<path d="M 1094.07 618.52 C 1103.2 597.019 1112.05 574.408 1123.15 553.397 C 1175.45 454.425 1258.7 359.001 1374.97 340.511 C 1408.22 335.224 1449.41 337.24 1483.51 337.296 L 1618.29 337.006 C 1570.44 363.28 1540.7 385.854 1504.87 427.841 C 1486.57 449.29 1478.82 464.562 1454.49 481.63 C 1421.09 505.057 1387.53 509.821 1350.37 524.078 C 1326.51 533.231 1303.78 542.004 1281.44 554.641 C 1204.28 598.36 1147.1 670.312 1121.94 755.348 C 1121 758.608 1120.11 761.88 1119.26 765.164 L 1117.68 769.452 C 1117.4 770.229 1116.8 771.605 1117.55 772.251 C 1118.86 771.789 1120.52 769.041 1121.32 767.826 C 1133.52 753.075 1141.98 741.396 1156.15 727.796 C 1190.77 694.587 1233.59 669.734 1278.14 652.245 C 1346.45 625.428 1415.6 607.237 1474.31 560.44 C 1507.38 534.081 1535.28 500.208 1554.86 462.676 C 1571.07 431.616 1578.24 413.038 1603.34 386.633 C 1631.5 357.009 1662.79 339.34 1704.23 337.939 C 1704.84 367.352 1704.15 397.2 1704.39 426.647 C 1704.49 439.498 1704.41 453.737 1702.91 466.399 C 1701.56 478.57 1698.66 490.52 1694.3 501.963 C 1677.78 545.265 1649.18 575.959 1611.44 601.641 C 1552.81 641.534 1482.9 648.813 1419.26 677.65 C 1432.88 680.312 1448.12 679.973 1461.73 682.152 C 1564.7 698.638 1647.14 684.653 1701.43 582.975 C 1703.49 586.241 1703.42 587.996 1704 592.031 C 1706.05 638.913 1702.49 687.794 1704.17 734.875 C 1704.67 748.772 1704.73 763.821 1702.2 777.436 C 1693.69 818.638 1659.72 848.789 1617.2 849.369 C 1571.99 850.259 1546.19 828.495 1514.15 800.276 C 1508.34 795.226 1490.47 784.222 1482.86 779.854 C 1456.46 764.408 1427.45 753.942 1397.27 748.976 C 1249.48 723.696 1152.8 844.591 1109.11 969.067 C 1104.43 982.402 1098.91 995.92 1095.38 1009.62 C 1145.95 932.606 1206.68 876.834 1300.25 856.486 C 1347.45 846.221 1398.41 849.944 1444.91 862.088 C 1469.57 868.531 1491.39 879.043 1514.91 886.319 C 1564.31 901.608 1625.91 902.816 1670.51 873.163 C 1683.38 864.603 1693.03 854.769 1704.13 844.061 C 1704.82 891.719 1703.88 940.167 1704.1 987.93 C 1704.2 1009.48 1707.7 1055.03 1698.32 1072.83 C 1674.91 1117.24 1620.71 1100.48 1595.12 1068.55 C 1578.18 1049.18 1564.46 1032.9 1549.9 1011.8 C 1513.93 966.525 1464.42 923.482 1406.54 910.873 C 1405.08 915.374 1403.6 920.255 1402.04 924.681 C 1460.88 951.095 1460.65 996.357 1442.72 1051.53 C 1439.4 1061.75 1439.7 1067.06 1445.3 1076.13 C 1458.52 1081.76 1474.23 1082.88 1479.87 1096.77 C 1486.53 1113.17 1478.7 1115.04 1472.05 1125.25 C 1470.7 1127.32 1475.09 1150.82 1475.89 1155.52 L 1492.06 1246.55 C 1499.06 1287.22 1516.49 1345.54 1471.3 1372 C 1458.33 1379.59 1442.52 1381.18 1427.82 1382.86 L 1427.87 1381.61 C 1428.07 1377.88 1428.42 1377.4 1426.87 1374.31 L 1426.74 1373.35 C 1426.96 1371.63 1428 1360.78 1425.92 1360.87 C 1424.26 1363.37 1425.43 1375.12 1425.25 1379.08 C 1425.86 1382.01 1425.43 1383.05 1427.32 1384.17 C 1444.12 1394.13 1459.98 1400.4 1464.69 1422.14 C 1465.56 1426.33 1465.93 1430.62 1465.79 1434.9 C 1448.79 1434.98 1299.63 1433.99 1295.27 1435.81 C 1288.56 1435.18 1281.77 1435.22 1275.03 1435.13 C 1274.59 1421.44 1278.16 1407.58 1288.76 1398.25 C 1296.95 1391.05 1308.38 1388.38 1317.53 1383.24 L 1317.26 1380.73 L 1316.34 1381.03 C 1308.79 1384.6 1288.51 1380.06 1281.39 1377.17 C 1234.93 1358.3 1235.72 1310.05 1247.33 1268.78 C 1248.74 1263.78 1249.85 1256.1 1250.87 1250.98 L 1275.95 1127.77 C 1257.51 1107.31 1261.59 1090.22 1288.21 1080.73 C 1316.95 1070.49 1303.97 1055.29 1298.44 1033.43 C 1287.7 981.891 1296.86 946.677 1345.3 924.429 C 1344 918.973 1343.65 916.441 1343.13 910.84 C 1274.44 923.025 1208.27 979.77 1169.1 1035.57 C 1044.55 1212.99 1117.7 1524.97 1324.1 1609.2 C 1336.47 1614.25 1348.56 1620.4 1361.22 1625 C 1440.32 1653.77 1524.4 1671.75 1606.65 1689.18 C 1637.12 1695.64 1670.5 1703.93 1700.89 1708.44 C 1688.61 1710.02 1671.71 1708.43 1658.68 1709.14 C 1631.11 1708.59 1603.53 1708.3 1575.95 1708.28 C 1564.63 1708.25 1536.36 1708.94 1527.07 1707.61 C 1506.03 1704.59 1476.37 1694.66 1454.97 1689.13 C 1438.05 1684.76 1416.11 1680.15 1400.24 1674.79 C 1403.03 1684.85 1407.1 1690.62 1416.9 1695.49 C 1430.51 1702.25 1448.96 1707.07 1463.73 1711.46 C 1460.59 1712.96 1458.25 1712.67 1454.75 1713.13 C 1438.18 1712.77 1418.45 1712.55 1402.02 1710.73 C 1378.56 1708.14 1344.39 1700.79 1328.49 1681.55 C 1321.81 1673.47 1317.41 1665.15 1307.33 1660.16 C 1291.27 1652.21 1274.32 1651.19 1257.48 1647.1 C 1215.54 1636.91 1179.39 1605.34 1153.04 1572.3 C 1160.23 1645.54 1237.94 1684.99 1298.82 1708.62 C 1294.04 1711.27 1263.21 1708.99 1252.74 1710.16 C 1243.37 1710.98 1232.63 1709.55 1223.27 1710.19 C 1141.93 1715.72 1061.58 1680.29 1028.01 1599.95 C 1015.06 1623.85 1009.69 1635.83 990.511 1655.37 C 927.653 1719.43 848.542 1709.72 766.528 1710.14 C 760.198 1709.75 754.285 1709.95 747.946 1709.62 C 808.769 1686.62 897.894 1647.37 902.407 1572.11 C 876.193 1607.58 836.89 1638.02 793.3 1647.48 C 777.494 1650.91 759.992 1651.82 745.235 1658.47 C 735.706 1662.75 731.046 1671.98 724.629 1679.4 C 709.408 1697 677.673 1706.1 655.631 1709.46 C 638.291 1712.1 617.629 1712.32 599.913 1712.96 L 595.161 1710.11 C 607.886 1706.2 623.269 1701.78 635.058 1696.04 C 645.542 1690.94 649.284 1686.52 652.716 1676.05 C 633.565 1682.99 598.381 1689.22 577.727 1694.55 C 560.676 1698.94 534.414 1704.97 517.303 1707.53 C 510.732 1708.52 485.468 1708.19 477.173 1708.33 C 446.479 1708.81 415.782 1709.08 385.084 1709.14 C 373.389 1708.31 359.722 1709.62 348.583 1708.38 C 449.154 1686.81 550.564 1672.01 649.01 1640.01 C 667.755 1633.91 689.016 1628.52 706.927 1620.92 C 749.813 1602.72 793.025 1576.59 826.451 1544.12 C 901.772 1470.97 944.399 1357.83 944.913 1253.76 C 945.189 1197.97 930.231 1118.47 889.14 1078.5 C 862.135 1052.22 830.452 1038.8 792.707 1039.62 C 684.598 1039.4 655.209 1140.39 590.554 1206.26 C 533.514 1264.37 438.783 1301.27 371.291 1235.33 C 342.301 1207 345.029 1176.16 345.006 1138.52 L 344.954 1080.06 C 344.982 1079.23 344.751 1073.16 345.654 1072.79 C 346.909 1073.03 348.563 1076.05 349.412 1077.18 L 349.943 1077.87 C 395.559 1142.09 471.199 1136.84 535.608 1105.4 C 561.293 1092.86 582.631 1076.8 605.822 1060.39 C 624.297 1047.41 642.869 1034.56 661.537 1021.85 C 627.377 1019.28 578.316 1019.53 548.492 1037.17 C 521.872 1052.91 501.093 1071.54 470.602 1081.44 C 434.34 1093.21 395.847 1094.08 367.441 1065.18 C 356.81 1054.18 349.612 1040.32 346.727 1025.29 C 343.579 1009.37 345.034 961.865 345.027 943.044 L 345.023 786.483 C 360.986 813.623 366.556 826.756 389.271 851.237 C 455.708 922.838 561.849 955.251 657.631 953.606 C 700.438 952.871 739.257 944.763 781.976 947.949 C 848.785 952.932 891.241 976.433 934.565 1025.52 C 922.339 987.397 901.673 952.517 874.106 923.48 C 857.206 906.039 838.028 890.96 817.093 878.651 C 742.955 835.124 671.988 851.421 592.271 850.345 C 502.51 849.134 394.577 818.277 356.854 728.5 C 341.955 693.042 344.844 660.347 344.739 622.982 C 344.503 594.928 344.581 566.873 344.973 538.821 L 347.875 537.857 C 362.764 598.886 382.543 644.517 427.802 690.983 C 484.633 749.331 581.014 781.393 662.081 781.036 C 593.566 746.984 533.368 712.843 477.682 659.293 C 426.767 610.331 345.821 514.916 344.87 442.191 C 344.502 414.045 354.513 388.082 374.435 368.053 C 387.325 355.093 402 346.738 419.683 342.222 C 451.027 334.216 494.825 337.513 527.434 337.535 C 572.477 337.646 617.521 337.511 662.562 337.129 C 623.831 358.235 595.748 378.603 576.203 419.773 C 555.111 464.202 557.065 516.264 573.686 561.739 C 600.376 634.764 655.004 689.183 722.105 726.319 C 745.774 739.419 770.056 750.506 794.371 762.326 C 808.429 769.16 820.017 778.79 834.059 785.312 C 828.42 758.45 821.786 736.209 818.663 707.973 C 778.273 685.616 745.157 663.702 711.715 631.044 C 667.668 588.031 631.219 542.026 630.161 477.498 C 630.04 438.738 641.314 406.353 668.309 378.557 C 712.79 332.756 762.86 337.523 821.145 337.273 L 936.548 336.914 C 943.671 338.21 936.533 339.552 931.826 341.649 C 863.056 375.548 807.979 425.021 793.692 504.016 C 786.056 546.238 792.378 599.173 817.633 634.887 C 818.856 628.58 819.432 621.632 820.315 615.164 C 837.62 488.476 921.514 357.565 1056.9 338.751 C 1074.28 336.336 1093.75 337.116 1111.52 337.151 L 1184.34 337.297 C 1186.15 338.814 1236.97 338.231 1244.6 338.761 C 1178.24 366.672 1129.28 397.703 1099.57 467.896 C 1080.66 512.562 1081.11 571.932 1094.07 618.52 z M 1314.14 1090.99 C 1313.43 1086.82 1312.96 1086.46 1314.72 1083.57 C 1336.91 1083.69 1362.45 1084.35 1384.27 1083.24 C 1379.99 1083.02 1342.41 1083.48 1341.74 1082.38 C 1342.32 1080.15 1342.1 1081.83 1342.06 1079.6 C 1342.78 1078.72 1396.04 1078.16 1399.21 1079.84 L 1397.21 1083.09 C 1403.28 1083.17 1409.77 1083.25 1415.81 1082.93 C 1418.59 1083.03 1420.99 1083.27 1423.72 1082.73 C 1429.4 1084.78 1429.1 1084.05 1428.92 1090.63 C 1427.98 1096.79 1427.71 1115 1428.71 1121.16 L 1429.23 1123.98 C 1431.66 1125.53 1433.72 1125.02 1436.68 1124.87 C 1440.03 1128.41 1440.65 1156.22 1441.13 1162.99 L 1422.85 1162.91 L 1441.33 1219.41 C 1447.4 1237.53 1454.78 1255.22 1457.35 1274.48 C 1461.3 1294.08 1435.47 1326.03 1416.77 1329.43 C 1393.25 1333.7 1357.02 1331.96 1332.78 1330.29 C 1307.79 1328.56 1280.91 1293.24 1286.7 1268.39 C 1292.45 1243.75 1300.66 1222.34 1309.31 1198.66 C 1313.11 1187.93 1317.6 1172.37 1321.5 1162.96 C 1314.14 1162.88 1307.93 1162.95 1300.62 1161.97 C 1301.32 1156.03 1301.76 1149.91 1302.14 1143.94 C 1303.03 1129.98 1301.37 1125.65 1315.37 1122.44 C 1314.47 1121.55 1313.57 1120.66 1312.65 1119.79 C 1306.9 1120.32 1304.66 1120.72 1299.06 1122.14 L 1299.08 1123.83 C 1299.2 1136.94 1294.89 1151.16 1292.7 1164.45 L 1276.37 1268.38 C 1274.48 1280.73 1272.56 1293.59 1270.77 1305.88 C 1265.07 1344.94 1279.02 1358.47 1316.17 1359.35 L 1317.79 1359.93 C 1318.11 1357.98 1318.67 1355.93 1319.13 1354 L 1320.12 1348.65 C 1320.78 1344.98 1321.31 1341.28 1321.7 1337.58 C 1343.17 1336.22 1400.75 1328.93 1422.49 1338.64 C 1424.12 1339.37 1423.97 1345.92 1423.93 1348.04 L 1424.7 1353.33 C 1425.31 1355.12 1425.89 1356.92 1426.43 1358.73 L 1428.42 1359.64 C 1486.87 1352.6 1471.91 1306.19 1466.1 1265.8 L 1452.69 1171.78 C 1450.46 1156.41 1446.94 1137.89 1445.59 1122.88 L 1429.98 1119.3 C 1431.09 1112.5 1430.74 1098.41 1431.04 1090.63 C 1435.52 1090.52 1449.69 1093.41 1453.67 1095.69 C 1464.73 1102.02 1466.87 1108.08 1470.28 1119.08 C 1487.29 1096.55 1464.16 1089.69 1446.9 1083.21 C 1437.12 1079.53 1435.33 1070.51 1432.26 1061.49 C 1451.51 1006.29 1462.61 958.995 1399.66 930.465 C 1397.01 934.674 1395.79 937.237 1391.51 940.157 C 1384.64 944.852 1376.13 946.484 1368.01 944.663 C 1359.18 942.63 1353.86 937.991 1349.14 930.557 C 1304.84 944.929 1293.77 983.947 1303.05 1026.52 C 1304.81 1037.61 1315.17 1059.94 1311.67 1070.31 C 1303.57 1094.29 1254.41 1082.03 1277.33 1121.24 C 1281.66 1100.69 1292.38 1095.1 1312.47 1091.34 L 1314.14 1090.99 z M 1346.14 1042 C 1345.76 1041.12 1345.37 1040.23 1344.98 1039.35 C 1325.82 1038.5 1329.63 1033.12 1344.98 1028.75 L 1346.17 1028.4 C 1351.6 1026.82 1367.14 1019.82 1371 1020.38 C 1380.62 1021.75 1392.26 1028.24 1402.02 1030.93 C 1413.52 1034.1 1409.13 1038.46 1399.4 1038.43 C 1399.02 1039.17 1398.65 1039.92 1398.3 1040.67 C 1398.26 1045.53 1398.08 1051.06 1398.3 1055.87 C 1400.89 1058.14 1422.41 1076.62 1422.6 1077.58 C 1405.72 1079.38 1337.15 1075.79 1328.24 1079.06 C 1325.09 1079.12 1324.17 1079.44 1321.21 1078.55 C 1330.63 1069.25 1333.12 1064.86 1344.58 1056.35 C 1345.44 1051.64 1345.73 1046.78 1346.14 1042 z M 1043.9 707.69 C 1006.32 639.454 990.534 579.334 1011.59 500.975 C 1019.13 472.883 1033.19 446.573 1048.19 421.877 C 1051.08 417.132 1066.56 394.074 1067.42 391.347 L 1066.42 391.021 C 997.55 421.935 949.269 470.335 922.246 541.41 C 891.641 623.313 894.43 713.961 930.012 793.828 C 944.045 824.917 957.606 845.413 977.299 873.251 C 984.514 883.247 993.477 896.482 1001.78 905.047 C 1005.73 832.668 1016.59 775.493 1043.9 707.69 z M 1359.77 920.113 C 1364.46 920.025 1388.56 921.052 1389.22 918.567 C 1391.92 905.73 1393.45 908.608 1379.5 907.976 C 1372.37 907.653 1365.91 908.368 1358.91 908.611 C 1359.18 912.656 1359.3 916.052 1359.77 920.113 z M 1379.63 930.694 C 1382.73 925.1 1374.61 927.048 1370.19 927.306 C 1370.77 932.933 1374.93 932.026 1379.2 930.818 L 1379.63 930.694 z" fill="rgb(9,25,28)" transform="translate(0,0)"></path>
<path d="M 1344.98 1039.35 C 1325.82 1038.5 1329.63 1033.12 1344.98 1028.75 L 1346.17 1028.4 C 1351.6 1026.82 1367.14 1019.82 1371 1020.38 C 1380.62 1021.75 1392.26 1028.24 1402.02 1030.93 C 1413.52 1034.1 1409.13 1038.46 1399.4 1038.43 C 1399.02 1039.17 1398.65 1039.92 1398.3 1040.67 C 1398.26 1045.53 1398.08 1051.06 1398.3 1055.87 C 1400.89 1058.14 1422.41 1076.62 1422.6 1077.58 C 1405.72 1079.38 1337.15 1075.79 1328.24 1079.06 C 1325.09 1079.12 1324.17 1079.44 1321.21 1078.55 C 1330.63 1069.25 1333.12 1064.86 1344.58 1056.35 C 1345.44 1051.64 1345.73 1046.78 1346.14 1042 C 1345.76 1041.12 1345.37 1040.23 1344.98 1039.35 z" fill="rgb(9,25,28)" transform="translate(0,0)"></path>
<path d="M 1344.98 1039.35 C 1325.82 1038.5 1329.63 1033.12 1344.98 1028.75 L 1346.17 1028.4 C 1351.6 1026.82 1367.14 1019.82 1371 1020.38 C 1380.62 1021.75 1392.26 1028.24 1402.02 1030.93 C 1413.52 1034.1 1409.13 1038.46 1399.4 1038.43 C 1399.02 1039.17 1398.65 1039.92 1398.3 1040.67 C 1382.37 1041.78 1362.06 1042.14 1346.14 1042 C 1345.76 1041.12 1345.37 1040.23 1344.98 1039.35 z" fill="rgb(9,25,28)" transform="translate(0,0)"></path>
<path d="M 1344.98 1039.35 C 1345.27 1038.95 1395.27 1037.86 1399.4 1038.43 C 1399.02 1039.17 1398.65 1039.92 1398.3 1040.67 C 1382.37 1041.78 1362.06 1042.14 1346.14 1042 C 1345.76 1041.12 1345.37 1040.23 1344.98 1039.35 z" fill="rgb(205,204,206)" transform="translate(0,0)"></path>
<path d="M 1384.27 1083.24 C 1379.99 1083.02 1342.41 1083.48 1341.74 1082.38 C 1342.32 1080.15 1342.1 1081.83 1342.06 1079.6 C 1342.78 1078.72 1396.04 1078.16 1399.21 1079.84 L 1397.21 1083.09 L 1384.27 1083.24 z" fill="rgb(254,254,254)" transform="translate(0,0)"></path>
<path d="M 1328.24 1079.06 C 1337.15 1075.79 1405.72 1079.38 1422.6 1077.58 L 1423.72 1082.73 C 1420.99 1083.27 1418.59 1083.03 1415.81 1082.93 C 1410.52 1079.59 1405.23 1079.42 1399.21 1079.84 C 1396.04 1078.16 1342.78 1078.72 1342.06 1079.6 C 1342.1 1081.83 1342.32 1080.15 1341.74 1082.38 C 1342.41 1083.48 1379.99 1083.02 1384.27 1083.24 C 1362.45 1084.35 1336.91 1083.69 1314.72 1083.57 L 1321.52 1083.24 C 1324.56 1083.11 1325.98 1083.52 1328.31 1081.58 L 1328.24 1079.06 z" fill="rgb(254,254,254)" fill-opacity="0.54902" transform="translate(0,0)"></path>
<path d="M 1428.92 1090.63 L 1431.04 1090.63 C 1430.74 1098.41 1431.09 1112.5 1429.98 1119.3 C 1428.75 1118.85 1429 1120.06 1428.71 1121.16 C 1427.71 1115 1427.98 1096.79 1428.92 1090.63 z" fill="rgb(152,157,161)" fill-opacity="0.988235" transform="translate(0,0)"></path>
<path d="M 1399.21 1079.84 C 1405.23 1079.42 1410.52 1079.59 1415.81 1082.93 C 1409.77 1083.25 1403.28 1083.17 1397.21 1083.09 L 1399.21 1079.84 z" fill="rgb(254,254,254)" fill-opacity="0.309804" transform="translate(0,0)"></path>
<path d="M 1321.5 1162.96 L 1422.85 1162.91 L 1441.33 1219.41 C 1447.4 1237.53 1454.78 1255.22 1457.35 1274.48 C 1461.3 1294.08 1435.47 1326.03 1416.77 1329.43 C 1393.25 1333.7 1357.02 1331.96 1332.78 1330.29 C 1307.79 1328.56 1280.91 1293.24 1286.7 1268.39 C 1292.45 1243.75 1300.66 1222.34 1309.31 1198.66 C 1313.11 1187.93 1317.6 1172.37 1321.5 1162.96 z" fill="rgb(240,163,68)" transform="translate(0,0)"></path>
<path d="M 1423.72 1082.73 C 1429.4 1084.78 1429.1 1084.05 1428.92 1090.63 C 1427.98 1096.79 1427.71 1115 1428.71 1121.16 L 1429.23 1123.98 C 1431.66 1125.53 1433.72 1125.02 1436.68 1124.87 C 1440.03 1128.41 1440.65 1156.22 1441.13 1162.99 L 1422.85 1162.91 L 1321.5 1162.96 C 1314.14 1162.88 1307.93 1162.95 1300.62 1161.97 C 1301.32 1156.03 1301.76 1149.91 1302.14 1143.94 C 1303.03 1129.98 1301.37 1125.65 1315.37 1122.44 C 1314.47 1121.55 1313.57 1120.66 1312.65 1119.79 C 1313.41 1113.67 1312.63 1098.37 1312.47 1091.34 L 1314.14 1090.99 C 1313.43 1086.82 1312.96 1086.46 1314.72 1083.57 C 1336.91 1083.69 1362.45 1084.35 1384.27 1083.24 L 1397.21 1083.09 C 1403.28 1083.17 1409.77 1083.25 1415.81 1082.93 C 1418.59 1083.03 1420.99 1083.27 1423.72 1082.73 z" fill="rgb(9,25,28)" transform="translate(0,0)"></path>
<path d="M 1312.47 1091.34 L 1314.14 1090.99 C 1315.39 1097.2 1315.12 1114.84 1315.37 1122.44 C 1314.47 1121.55 1313.57 1120.66 1312.65 1119.79 C 1313.41 1113.67 1312.63 1098.37 1312.47 1091.34 z" fill="rgb(152,157,161)" transform="translate(0,0)"></path>
<path d="M 1321.7 1337.58 C 1343.17 1336.22 1400.75 1328.93 1422.49 1338.64 C 1424.12 1339.37 1423.97 1345.92 1423.93 1348.04 C 1415.12 1349.24 1395.92 1348.8 1386.39 1348.8 L 1320.12 1348.65 C 1320.78 1344.98 1321.31 1341.28 1321.7 1337.58 z" fill="rgb(9,25,28)" transform="translate(0,0)"></path>
<path d="M 1320.12 1348.65 L 1386.39 1348.8 C 1395.92 1348.8 1415.12 1349.24 1423.93 1348.04 L 1424.7 1353.33 C 1417.46 1354.6 1396.59 1354.13 1388.28 1354.13 L 1319.13 1354 L 1320.12 1348.65 z" fill="rgb(254,254,254)" transform="translate(0,0)"></path>
<path d="M 1316.17 1359.35 L 1317.79 1359.93 C 1318.23 1365.3 1318.66 1375.59 1317.26 1380.73 L 1316.34 1381.03 C 1315.91 1373.78 1316.03 1366.61 1316.17 1359.35 z" fill="rgb(205,204,206)" transform="translate(0,0)"></path>
<path d="M 344.954 1080.06 C 344.982 1079.23 344.751 1073.16 345.654 1072.79 C 346.909 1073.03 348.563 1076.05 349.412 1077.18 L 349.943 1077.87 C 348.297 1078.64 346.634 1079.37 344.954 1080.06 z" fill="rgb(17,18,23)" transform="translate(0,0)"></path>
<path d="M 936.548 336.914 C 943.671 338.21 936.533 339.552 931.826 341.649 C 930.335 338.051 931.062 338.467 934.822 337.534 L 936.548 336.914 z" fill="rgb(17,18,23)" transform="translate(0,0)"></path>
<path d="M 1370.19 927.306 C 1374.61 927.048 1382.73 925.1 1379.63 930.694 L 1379.2 930.818 C 1374.93 932.026 1370.77 932.933 1370.19 927.306 z" fill="rgb(254,254,254)" fill-opacity="0.027451" transform="translate(0,0)"></path>
<path d="M 1266.15 1463.83 C 1265.15 1440.49 1269.13 1440.36 1291.03 1439.35 C 1303.36 1440.87 1335.17 1440.24 1348.67 1440.26 L 1467.83 1440 C 1478.43 1444.24 1477.44 1450.98 1477.02 1460.62 C 1434.6 1466.44 1383.23 1467.5 1340.54 1467.28 C 1317.04 1467.15 1289.3 1466.76 1266.15 1463.83 z" fill="rgb(9,25,28)" transform="translate(0,0)"></path>
<path d="M 1295.27 1435.81 C 1299.63 1433.99 1448.79 1434.98 1465.79 1434.9 L 1467.83 1440 L 1348.67 1440.26 C 1335.17 1440.24 1303.36 1440.87 1291.03 1439.35 C 1293.6 1438.94 1293.46 1439.03 1295.68 1437.67 L 1295.27 1435.81 z" fill="rgb(254,254,254)" fill-opacity="0.988235" transform="translate(0,0)"></path>
<path d="M 1184.34 337.297 C 1189.92 336.967 1246.77 336.956 1247.35 337.393 C 1247.45 337.718 1247.44 337.535 1247.25 337.934 C 1246.33 338.562 1245.71 338.572 1244.6 338.761 C 1236.97 338.231 1186.15 338.814 1184.34 337.297 z" fill="rgb(17,18,23)" fill-opacity="0.898039" transform="translate(0,0)"></path>
<path d="M 1298.82 1708.62 C 1299.46 1708.82 1302.54 1709.6 1302.78 1710.5 C 1301.89 1711.57 1257.34 1710.61 1252.74 1710.16 C 1263.21 1708.99 1294.04 1711.27 1298.82 1708.62 z" fill="rgb(17,18,23)" fill-opacity="0.854902" transform="translate(0,0)"></path>
<path d="M 1700.89 1708.44 C 1701.04 1708.74 1701.18 1709.04 1701.32 1709.34 C 1699.47 1710.81 1665.23 1709.91 1660.32 1709.35 L 1658.68 1709.14 C 1671.71 1708.43 1688.61 1710.02 1700.89 1708.44 z" fill="rgb(120,121,120)" fill-opacity="0.415686" transform="translate(0,0)"></path>
<path d="M 385.084 1709.14 C 380.954 1709.72 346.507 1710.55 345.839 1709.5 L 345.998 1709.21 C 346.989 1708.61 347.417 1708.59 348.583 1708.38 C 359.722 1709.62 373.389 1708.31 385.084 1709.14 z" fill="rgb(85,86,88)" fill-opacity="0.596078" transform="translate(0,0)"></path>
<path d="M 1425.25 1379.08 C 1425.43 1375.12 1424.26 1363.37 1425.92 1360.87 C 1428 1360.78 1426.96 1371.63 1426.74 1373.35 C 1425.76 1375.81 1425.71 1376.42 1425.25 1379.08 z" fill="rgb(152,157,161)" fill-opacity="0.984314" transform="translate(0,0)"></path>
<path d="M 595.161 1710.11 L 599.913 1712.96 C 598.024 1713 596.135 1713.07 594.25 1713.2 C 591.018 1712.92 587.828 1712.69 584.599 1712.37 C 588.105 1711.55 591.626 1710.79 595.161 1710.11 z" fill="rgb(17,18,23)" fill-opacity="0.988235" transform="translate(0,0)"></path>
<path d="M 1463.73 1711.46 C 1464.29 1711.58 1468.89 1712.47 1469.53 1713.41 C 1469.82 1713.84 1468.64 1714.06 1468.21 1714.06 C 1463.71 1714.12 1459.21 1713.75 1454.75 1713.13 C 1458.25 1712.67 1460.59 1712.96 1463.73 1711.46 z" fill="rgb(17,18,23)" fill-opacity="0.945098" transform="translate(0,0)"></path>
<path d="M 747.946 1709.62 C 754.285 1709.95 760.198 1709.75 766.528 1710.14 C 763.874 1710.57 747.937 1711.96 747.16 1710.32 C 747.355 1709.98 747.177 1710.21 747.946 1709.62 z" fill="rgb(85,86,88)" fill-opacity="0.647059" transform="translate(0,0)"></path>
<path d="M 344.973 538.821 C 344.977 537.111 344.781 529.612 345.477 528.69 C 345.538 528.7 345.599 528.711 345.66 528.722 C 345.964 529.135 345.828 528.906 346.063 529.414 L 345.372 529.722 L 346.355 530.292 C 346.926 532.544 347.396 535.503 347.875 537.857 L 344.973 538.821 z" fill="rgb(17,18,23)" fill-opacity="0.94902" transform="translate(0,0)"></path>
<path d="M 1701.43 582.975 C 1701.84 581.96 1702.4 580.175 1703.44 579.682 C 1704.92 580.095 1704.09 590.545 1704 592.031 C 1703.42 587.996 1703.49 586.241 1701.43 582.975 z" fill="rgb(17,18,23)" fill-opacity="0.976471" transform="translate(0,0)"></path>
<path d="M 1119.26 765.164 C 1119.95 766.157 1120.56 766.892 1121.32 767.826 C 1120.52 769.041 1118.86 771.789 1117.55 772.251 C 1116.8 771.605 1117.4 770.229 1117.68 769.452 L 1119.26 765.164 z" fill="rgb(254,254,254)" fill-opacity="0.0352941" transform="translate(0,0)"></path>
<path d="M 594.25 1713.2 C 592.513 1713.46 582.254 1714.82 581.349 1713.56 C 581.628 1712.43 583.687 1712.48 584.599 1712.37 C 587.828 1712.69 591.018 1712.92 594.25 1713.2 z" fill="rgb(85,86,88)" fill-opacity="0.615686" transform="translate(0,0)"></path>
<path d="M 1426.87 1374.31 C 1428.42 1377.4 1428.07 1377.88 1427.87 1381.61 L 1427.82 1382.86 C 1426.95 1379.02 1426.91 1378.3 1426.87 1374.31 z" fill="rgb(153,140,163)" fill-opacity="0.25098" transform="translate(0,0)"></path>
<metadata><recraft-signature>{"signed_by": "recraft", "signature_b64": "bKtEWY2gbRxTGUCBd5P+SIrQJqATsZTZVbnkUuXNnmjYbQiPzOuvkiUwWbnI6T44cbdINrbKaXSU2hOvGf++AA==", "signing_algo": "Ed25519", "generation_timestamp": 1772505754, "identifier": "bbf167d1-127f-4d24-85b7-89635d513d6c"}</recraft-signature></metadata></svg>